<svg width="290" height="49" viewBox="0 0 290 49" fill="none" xmlns="http://www.w3.org/2000/svg">
<path d="M0.216614 10.9053C1.07599 11.0095 1.85724 11.0876 2.56036 11.1397C3.23745 11.1918 3.82338 11.2439 4.31818 11.296C4.89109 11.348 5.39891 11.3871 5.84161 11.4131C6.31036 11.4131 6.90932 11.4001 7.63849 11.3741C8.26349 11.348 9.05776 11.309 10.0213 11.2569C10.9848 11.2048 12.1697 11.1137 13.576 10.9835C12.8989 11.3741 12.339 11.7647 11.8963 12.1553C11.4796 12.546 11.1541 12.8975 10.9197 13.21C10.6333 13.5746 10.4249 13.9392 10.2947 14.3038C10.2166 14.7986 10.2427 15.7621 10.3729 17.1944C10.4249 17.7934 10.5031 18.5355 10.6072 19.421C10.7374 20.2803 10.8937 21.309 11.076 22.5069C11.2843 23.6788 11.5317 25.0329 11.8182 26.5694C12.1307 28.1059 12.4822 29.8506 12.8729 31.8038C13.3937 30.3194 13.8234 29.0043 14.1619 27.8585C14.5005 26.6866 14.7869 25.684 15.0213 24.8506C15.2817 23.9131 15.5031 23.0798 15.6854 22.3506C15.8677 21.5954 16.089 20.6189 16.3494 19.421C16.5578 18.4053 16.8312 17.0902 17.1697 15.4756C17.5083 13.8611 17.9249 11.8689 18.4197 9.49908L19.826 9.6944C19.9562 11.5434 20.0864 13.171 20.2166 14.5772C20.3729 15.9835 20.5031 17.1814 20.6072 18.171C20.7114 19.3168 20.8156 20.3064 20.9197 21.1397C21.0239 21.8949 21.1802 22.7673 21.3885 23.7569C21.5708 24.5902 21.8052 25.6189 22.0916 26.8428C22.3781 28.0408 22.7557 29.3949 23.2244 30.9053C23.6932 29.0564 24.1098 27.4027 24.4744 25.9444C24.8651 24.4861 25.1906 23.197 25.451 22.0772C25.7374 20.9574 25.9718 19.9939 26.1541 19.1866C26.3624 18.3793 26.5317 17.7022 26.6619 17.1553C26.9484 15.8533 27.1177 14.9809 27.1697 14.5381C27.1437 14.0434 27.0265 13.5616 26.8182 13.0928C26.6359 12.6762 26.3494 12.2204 25.9588 11.7256C25.5682 11.2309 24.9953 10.7491 24.2401 10.2803C25.8286 10.3324 27.1177 10.3715 28.1072 10.3975C29.1229 10.3975 29.9302 10.3975 30.5291 10.3975H33.4979C34.0187 10.3975 34.6958 10.3975 35.5291 10.3975C36.3885 10.3715 37.4822 10.3324 38.8104 10.2803C37.6645 10.8793 36.7401 11.4262 36.0369 11.921C35.3338 12.4158 34.7869 12.8324 34.3963 13.171C33.9276 13.5876 33.589 13.9392 33.3807 14.2256C33.1723 14.7465 32.8338 15.9184 32.3651 17.7413C32.1567 18.5225 31.9223 19.4991 31.6619 20.671C31.4015 21.8168 31.089 23.197 30.7244 24.8116C30.3859 26.4262 29.9953 28.3142 29.5526 30.4756C29.1098 32.6111 28.6151 35.059 28.0682 37.8194L21.3104 37.1163L18.4197 24.9678C17.977 27.1814 17.6255 28.9783 17.3651 30.3585C17.1046 31.7126 16.9093 32.7673 16.7791 33.5225C16.6229 34.434 16.5317 35.098 16.5057 35.5147C16.4796 35.8793 16.4536 36.2309 16.4276 36.5694C16.4015 36.8559 16.3624 37.1684 16.3104 37.5069C16.2843 37.8454 16.2453 38.1579 16.1932 38.4444H9.27911C8.60203 35.4756 7.99005 32.8585 7.44318 30.5928C6.92234 28.3012 6.45359 26.296 6.03693 24.5772C5.62026 22.8585 5.25568 21.4001 4.94318 20.2022C4.65672 19.0043 4.3963 18.0017 4.16193 17.1944C3.64109 15.3194 3.26349 14.1605 3.02911 13.7178C2.84682 13.5095 2.61245 13.2621 2.32599 12.9756C2.09161 12.7413 1.80516 12.4548 1.46661 12.1163C1.10203 11.7517 0.685364 11.348 0.216614 10.9053Z" fill="#D2D0A0"/>
<path d="M34.5916 20.9053L41.7791 20.9835C41.3624 22.572 41.0499 23.9262 40.8416 25.046C40.6593 26.1658 40.5421 27.1033 40.4901 27.8585C40.3859 28.7178 40.3598 29.447 40.4119 30.046C40.4901 30.5928 40.6203 31.1788 40.8026 31.8038C40.9588 32.3246 41.1932 32.9236 41.5057 33.6006C41.8182 34.2777 42.2348 34.9548 42.7557 35.6319C42.4432 35.5277 42.1046 35.4496 41.7401 35.3975C41.3755 35.3454 41.0369 35.3064 40.7244 35.2803C40.3598 35.2543 39.9953 35.2543 39.6307 35.2803C39.2661 35.3064 38.8624 35.3454 38.4197 35.3975C38.0552 35.4496 37.6124 35.5147 37.0916 35.5928C36.5708 35.671 36.0239 35.7751 35.451 35.9053C35.8416 34.7335 36.1411 33.7178 36.3494 32.8585C36.5838 31.9991 36.7531 31.2829 36.8572 30.71C36.9614 30.0329 37.0265 29.4861 37.0526 29.0694C37.0526 28.5486 37.0526 27.9626 37.0526 27.3116C37.0526 26.6345 37.0526 25.9835 37.0526 25.3585C37.0526 24.7335 37.0395 24.1866 37.0135 23.7178C36.9874 23.223 36.9354 22.9105 36.8572 22.7803L36.4666 22.3897C36.3104 22.2595 36.076 22.0772 35.7635 21.8428C35.477 21.5824 35.0864 21.2699 34.5916 20.9053ZM37.3651 14.8897C37.9119 14.6033 38.4588 14.5251 39.0057 14.6553C39.5786 14.7855 40.0213 15.0329 40.3338 15.3975C40.6463 15.7621 40.7505 16.1918 40.6463 16.6866C40.5682 17.1814 40.1515 17.6631 39.3963 18.1319C38.6411 18.5746 37.977 18.7309 37.4041 18.6006C36.8312 18.4704 36.4276 18.197 36.1932 17.7803C35.9588 17.3637 35.9197 16.8819 36.076 16.335C36.2322 15.7621 36.6619 15.2803 37.3651 14.8897Z" fill="#D2D0A0"/>
<path d="M45.3729 34.0694C45.5552 33.21 45.6854 32.4548 45.7635 31.8038C45.8677 31.1267 45.9458 30.5668 45.9979 30.1241C46.0499 29.6033 46.076 29.1605 46.076 28.796C46.0499 28.3533 46.0239 27.8324 45.9979 27.2335C45.9979 26.6085 45.9718 25.9965 45.9197 25.3975C45.8937 24.7725 45.8546 24.2256 45.8026 23.7569C45.7505 23.2621 45.6854 22.9105 45.6072 22.7022C45.5031 22.4939 45.3598 22.2725 45.1776 22.0381C44.813 21.5954 44.2791 21.1658 43.576 20.7491C44.1749 20.6189 44.6828 20.5147 45.0994 20.4366C45.5421 20.3324 45.9067 20.2413 46.1932 20.1631C46.5057 20.059 46.7791 19.9678 47.0135 19.8897C47.2218 19.8116 47.4692 19.7335 47.7557 19.6553C47.9901 19.6033 48.2765 19.5381 48.6151 19.46C48.9536 19.3819 49.3442 19.2908 49.7869 19.1866L49.6697 22.7413C50.5031 21.7517 51.3494 21.0095 52.2088 20.5147C53.0682 20.0199 53.8755 19.6684 54.6307 19.46C55.4901 19.1996 56.3364 19.0694 57.1697 19.0694C58.2114 19.1215 59.1749 19.2908 60.0604 19.5772C60.9718 19.8637 61.7531 20.2022 62.4041 20.5928C63.0812 20.9574 63.6281 21.348 64.0447 21.7647C64.4614 22.1814 64.7088 22.546 64.7869 22.8585C65.0994 23.8741 65.1776 24.8116 65.0213 25.671C64.8651 26.5043 64.6567 27.3246 64.3963 28.1319C64.1619 28.9131 63.9536 29.6944 63.7713 30.4756C63.6151 31.2569 63.6802 32.1033 63.9666 33.0147C64.0708 33.2491 64.1749 33.4835 64.2791 33.7178C64.3833 33.9262 64.5135 34.1345 64.6697 34.3428C64.826 34.5512 65.0083 34.7204 65.2166 34.8506C64.9302 34.8246 64.6437 34.8116 64.3572 34.8116C64.0708 34.7855 63.8104 34.7595 63.576 34.7335C63.2895 34.7074 63.0291 34.6814 62.7947 34.6553C62.5343 34.6293 62.1828 34.6163 61.7401 34.6163C60.9848 34.6163 59.813 34.6553 58.2244 34.7335C58.4588 34.1866 58.6411 33.7309 58.7713 33.3663C58.9276 32.9756 59.0578 32.6631 59.1619 32.4288C59.2661 32.1423 59.3442 31.921 59.3963 31.7647C59.7088 31.0095 59.8911 30.1501 59.9432 29.1866C60.0213 28.223 59.9562 27.2465 59.7479 26.2569C59.6697 25.9184 59.5395 25.5147 59.3572 25.046C59.1749 24.5772 58.9276 24.1215 58.6151 23.6788C58.3286 23.2361 57.977 22.8585 57.5604 22.546C57.1697 22.2335 56.714 22.0512 56.1932 21.9991C55.6723 21.947 55.0864 22.0772 54.4354 22.3897C53.8104 22.7022 53.1333 23.2751 52.4041 24.1085C51.8572 24.8116 51.4276 25.671 51.1151 26.6866C50.8286 27.546 50.6333 28.6267 50.5291 29.9288C50.4249 31.2048 50.5812 32.7022 50.9979 34.421C50.6333 34.3689 50.2947 34.3428 49.9822 34.3428C49.6697 34.3168 49.4093 34.2908 49.201 34.2647C48.9406 34.2387 48.7062 34.2126 48.4979 34.1866C48.2635 34.1866 48.0031 34.1736 47.7166 34.1475C47.4562 34.1475 47.1307 34.1475 46.7401 34.1475C46.3494 34.1215 45.8937 34.0954 45.3729 34.0694Z" fill="#D2D0A0"/>
<path d="M86.3885 8.4444C86.8833 8.47044 87.4171 8.48346 87.9901 8.48346C88.4848 8.48346 89.0447 8.49648 89.6697 8.52252C90.3208 8.52252 90.9979 8.49648 91.701 8.4444C91.076 8.73086 90.5291 9.14752 90.0604 9.6944C89.5916 10.2413 89.214 10.7881 88.9276 11.335C88.563 11.9861 88.2635 12.6631 88.0291 13.3663C87.8989 13.7829 87.7947 14.5251 87.7166 15.5928C87.6385 16.6345 87.5734 17.8585 87.5213 19.2647C87.4953 20.671 87.4822 22.1553 87.4822 23.7178C87.4822 25.2803 87.4953 26.7777 87.5213 28.21C87.5473 29.6163 87.5864 30.8663 87.6385 31.96C87.6906 33.0538 87.7557 33.822 87.8338 34.2647C87.938 34.7855 88.0682 35.2803 88.2244 35.7491C88.3546 36.1658 88.5239 36.5954 88.7322 37.0381C88.9406 37.4548 89.201 37.7934 89.5135 38.0538L85.5291 39.8506C85.3208 39.5642 85.1515 39.2647 85.0213 38.9522C84.8911 38.6658 84.7869 38.4053 84.7088 38.171C84.6046 37.8845 84.5395 37.6241 84.5135 37.3897C84.4614 37.0772 84.4093 36.7387 84.3572 36.3741C84.3052 35.9835 84.2401 35.6189 84.1619 35.2803C84.1098 34.9158 84.0708 34.6163 84.0447 34.3819C84.0187 34.1475 84.0187 34.0043 84.0447 33.9522C84.0708 33.9001 83.9145 34.1345 83.576 34.6553C83.2374 35.1501 82.7296 35.7361 82.0526 36.4131C81.4015 37.0642 80.5942 37.7022 79.6307 38.3272C78.6671 38.9262 77.5864 39.3038 76.3885 39.46C75.1645 39.6163 74.0317 39.3819 72.9901 38.7569C71.9744 38.1319 71.102 37.2595 70.3729 36.1397C69.6437 34.9939 69.0838 33.6788 68.6932 32.1944C68.3286 30.684 68.1854 29.1475 68.2635 27.585C68.3156 26.5434 68.5499 25.6189 68.9666 24.8116C69.3833 23.9783 69.9041 23.2621 70.5291 22.6631C71.1802 22.0381 71.8833 21.5173 72.6385 21.1006C73.4197 20.6579 74.1749 20.2934 74.9041 20.0069C75.6593 19.7204 76.3624 19.5121 77.0135 19.3819C77.6645 19.2517 78.1854 19.1605 78.576 19.1085C79.0447 19.0824 79.5786 19.1605 80.1776 19.3428C80.6984 19.4991 81.2973 19.7595 81.9744 20.1241C82.6776 20.4887 83.4588 21.0355 84.3182 21.7647C84.1619 19.1605 84.0187 17.0772 83.8885 15.5147C83.7583 13.9262 83.6281 12.7152 83.4979 11.8819C83.3677 10.8923 83.2505 10.2152 83.1463 9.85065C83.0161 9.59023 82.8468 9.32981 82.6385 9.0694C82.4562 8.86106 82.2218 8.65273 81.9354 8.4444C81.6749 8.21002 81.3624 8.02773 80.9979 7.89752C81.6749 8.02773 82.326 8.11888 82.951 8.17096C83.576 8.22304 84.1489 8.27513 84.6697 8.32721C85.2687 8.37929 85.8416 8.41836 86.3885 8.4444ZM76.5838 23.0147C76.089 23.197 75.6854 23.5095 75.3729 23.9522C75.0864 24.3949 74.852 24.9288 74.6697 25.5538C74.4874 26.1527 74.3572 26.8038 74.2791 27.5069C74.227 28.184 74.188 28.848 74.1619 29.4991C74.1619 30.1241 74.1619 30.697 74.1619 31.2178C74.1619 31.7387 74.1619 32.1293 74.1619 32.3897C74.1619 32.546 74.188 32.8324 74.2401 33.2491C74.3182 33.6397 74.4744 34.0564 74.7088 34.4991C74.9432 34.9158 75.2687 35.2934 75.6854 35.6319C76.1281 35.9704 76.714 36.1397 77.4432 36.1397C78.0421 36.0876 78.6802 35.8793 79.3572 35.5147C79.9562 35.2022 80.6333 34.7074 81.3885 34.0303C82.1697 33.3272 83.0031 32.3246 83.8885 31.0225C83.8364 30.1892 83.7973 29.4991 83.7713 28.9522C83.7713 28.4053 83.7583 27.9626 83.7322 27.6241C83.7062 27.2335 83.6932 26.921 83.6932 26.6866V26.1006C83.6932 25.9444 83.6932 25.7751 83.6932 25.5928C83.6932 25.4105 83.7062 25.2413 83.7322 25.085C83.0031 24.5642 82.352 24.1215 81.7791 23.7569C81.2322 23.3663 80.6854 23.0798 80.1385 22.8975C79.6177 22.6892 79.0708 22.598 78.4979 22.6241C77.951 22.6241 77.313 22.7543 76.5838 23.0147Z" fill="#D2D0A0"/>
<path d="M89.7088 10.4366C90.5421 10.6449 91.3364 10.8012 92.0916 10.9053C92.8468 11.0095 93.5109 11.0876 94.0838 11.1397C94.7609 11.2178 95.3859 11.2439 95.9588 11.2178C96.688 11.2178 97.5994 11.1527 98.6932 11.0225C99.813 10.8923 100.959 10.7751 102.131 10.671C103.303 10.5408 104.422 10.4626 105.49 10.4366C106.584 10.3845 107.469 10.4496 108.146 10.6319C108.823 10.7881 109.513 11.0355 110.217 11.3741C110.946 11.6866 111.61 12.0902 112.209 12.585C112.808 13.0538 113.303 13.6137 113.693 14.2647C114.084 14.8897 114.305 15.6059 114.357 16.4131C114.331 17.4288 114.097 18.3793 113.654 19.2647C113.29 20.0199 112.678 20.8012 111.818 21.6085C110.959 22.3897 109.722 22.9887 108.107 23.4053C108.915 23.5095 109.605 23.6918 110.178 23.9522C110.777 24.1866 111.284 24.473 111.701 24.8116C112.144 25.1241 112.495 25.4756 112.756 25.8663C113.042 26.2569 113.263 26.6475 113.42 27.0381C113.81 27.9496 113.993 28.9652 113.967 30.085C113.81 31.5434 113.511 32.7022 113.068 33.5616C112.652 34.421 112.17 35.085 111.623 35.5538C111.076 36.0225 110.516 36.348 109.943 36.5303C109.37 36.7126 108.849 36.8559 108.381 36.96C107.912 37.0642 107.339 37.1163 106.662 37.1163C105.985 37.1163 105.256 37.1033 104.474 37.0772C103.719 37.0251 102.938 36.9861 102.131 36.96C101.323 36.9079 100.555 36.9079 99.826 36.96C99.227 37.0121 98.4979 37.0642 97.6385 37.1163C96.9093 37.1684 95.9979 37.2335 94.9041 37.3116C93.8104 37.3637 92.5343 37.4288 91.076 37.5069C91.3624 37.2986 91.5968 37.0642 91.7791 36.8038C91.9874 36.5173 92.1567 36.2699 92.2869 36.0616C92.4171 35.8012 92.5343 35.5538 92.6385 35.3194C92.7166 35.1111 92.7817 34.5381 92.8338 33.6006C92.8859 32.6631 92.9249 31.5434 92.951 30.2413C92.977 28.9131 92.9901 27.4939 92.9901 25.9835C93.0161 24.447 93.0031 22.9756 92.951 21.5694C92.9249 20.1371 92.8729 18.8741 92.7947 17.7803C92.7427 16.6605 92.6645 15.8533 92.5604 15.3585C92.4041 14.8116 92.1958 14.2517 91.9354 13.6788C91.727 13.184 91.4276 12.6501 91.0369 12.0772C90.6723 11.5043 90.2296 10.9574 89.7088 10.4366ZM97.951 14.421C97.951 14.5251 97.964 14.8767 97.9901 15.4756C98.0161 15.9965 98.0421 16.8038 98.0682 17.8975C98.1203 18.9652 98.1854 20.4887 98.2635 22.4678C98.9145 22.7543 99.5526 22.9105 100.178 22.9366C100.803 22.9366 101.362 22.9105 101.857 22.8585C102.43 22.7803 102.977 22.6501 103.498 22.4678C104.201 22.1814 104.748 21.7126 105.138 21.0616C105.555 20.4105 105.829 19.7335 105.959 19.0303C106.115 18.3012 106.154 17.6241 106.076 16.9991C105.998 16.348 105.829 15.8793 105.568 15.5928C105.073 15.1501 104.461 14.7855 103.732 14.4991C103.107 14.2647 102.313 14.1085 101.349 14.0303C100.412 13.9262 99.2791 14.0564 97.951 14.421ZM97.7557 32.9366C98.7192 33.4314 99.5656 33.7569 100.295 33.9131C101.024 34.0694 101.636 34.1475 102.131 34.1475C102.704 34.1475 103.198 34.0694 103.615 33.9131C104.11 33.6788 104.592 33.3663 105.06 32.9756C105.555 32.559 105.92 32.0772 106.154 31.5303C106.415 30.9574 106.519 30.3324 106.467 29.6553C106.415 28.9522 106.115 28.184 105.568 27.3506C105.073 26.7517 104.474 26.2829 103.771 25.9444C103.146 25.6579 102.352 25.4756 101.388 25.3975C100.451 25.3194 99.2921 25.5408 97.9119 26.0616L97.7557 32.9366Z" fill="#D2D0A0"/>
<path d="M115.763 19.6553C116.258 19.6814 116.701 19.6944 117.092 19.6944C117.508 19.6684 117.86 19.6423 118.146 19.6163C118.485 19.5902 118.784 19.5642 119.045 19.5381C119.435 19.4861 119.839 19.421 120.256 19.3428C120.62 19.2908 120.998 19.2256 121.388 19.1475C121.805 19.0434 122.209 18.9262 122.599 18.796C122.443 19.1866 122.313 19.5251 122.209 19.8116C122.105 20.098 122.027 20.3454 121.974 20.5538C121.896 20.7881 121.857 20.9835 121.857 21.1397C121.831 21.322 121.818 21.5434 121.818 21.8038C121.792 22.2465 121.792 22.9626 121.818 23.9522C123.172 22.7803 124.305 21.8689 125.217 21.2178C126.154 20.5668 126.896 20.059 127.443 19.6944C128.094 19.2777 128.602 19.0043 128.967 18.8741C129.93 18.7178 130.777 18.9392 131.506 19.5381C131.818 19.7986 132.118 20.1501 132.404 20.5928C132.691 21.0095 132.938 21.5694 133.146 22.2725C133.355 22.9756 133.511 23.822 133.615 24.8116C133.719 25.7751 133.732 26.934 133.654 28.2881C133.107 28.3402 132.612 28.3923 132.17 28.4444C131.753 28.4965 131.402 28.5355 131.115 28.5616C130.777 28.6137 130.464 28.6397 130.178 28.6397L129.123 28.7569C128.758 28.809 128.303 28.8611 127.756 28.9131C127.235 28.9392 126.597 28.9913 125.842 29.0694C126.935 28.184 127.638 27.4158 127.951 26.7647C128.29 26.0876 128.433 25.5277 128.381 25.085C128.329 24.5902 128.094 24.1605 127.678 23.796C127.183 23.5095 126.649 23.4053 126.076 23.4835C125.581 23.5355 125.008 23.7569 124.357 24.1475C123.706 24.5381 123.016 25.2673 122.287 26.335C122.339 28.0017 122.391 29.3819 122.443 30.4756C122.521 31.5694 122.586 32.4548 122.638 33.1319C122.717 33.9131 122.782 34.5251 122.834 34.9678C122.912 35.3585 123.068 35.7751 123.303 36.2178C123.485 36.5824 123.745 36.9861 124.084 37.4288C124.422 37.8715 124.865 38.3142 125.412 38.7569C124.266 38.7048 123.329 38.7048 122.599 38.7569C122.157 38.7829 121.766 38.809 121.428 38.835C121.063 38.8871 120.672 38.9392 120.256 38.9913C119.891 39.0434 119.461 39.0954 118.967 39.1475C118.498 39.2256 117.977 39.3038 117.404 39.3819C117.612 39.0954 117.782 38.7569 117.912 38.3663C118.042 38.0017 118.146 37.6501 118.224 37.3116C118.329 36.921 118.407 36.5173 118.459 36.1006C118.485 35.7361 118.498 35.1892 118.498 34.46C118.524 33.7309 118.511 32.9105 118.459 31.9991C118.433 31.0616 118.394 30.098 118.342 29.1085C118.29 28.0928 118.224 27.1423 118.146 26.2569C118.068 25.3715 117.977 24.6033 117.873 23.9522C117.795 23.2751 117.704 22.8064 117.599 22.546C117.469 22.2335 117.313 21.921 117.131 21.6085C116.974 21.322 116.779 21.0225 116.545 20.71C116.31 20.3715 116.05 20.0199 115.763 19.6553Z" fill="#D2D0A0"/>
<path d="M145.451 32.0772C146.18 32.0772 146.857 31.9991 147.482 31.8428C148.003 31.7126 148.498 31.5043 148.967 31.2178C149.461 30.9053 149.787 30.4496 149.943 29.8506C150.464 29.9548 150.907 30.046 151.271 30.1241C151.636 30.1762 151.948 30.2283 152.209 30.2803C152.495 30.3585 152.743 30.4105 152.951 30.4366C153.159 30.4887 153.407 30.5408 153.693 30.5928C153.954 30.6449 154.266 30.71 154.631 30.7881C155.021 30.8402 155.477 30.9184 155.998 31.0225C155.607 30.9704 155.204 31.0095 154.787 31.1397C154.396 31.2699 154.019 31.4131 153.654 31.5694C153.237 31.7517 152.847 31.973 152.482 32.2335C152.248 32.3897 151.974 32.6241 151.662 32.9366C151.375 33.2491 150.959 33.5486 150.412 33.835C149.865 34.1215 149.136 34.3689 148.224 34.5772C147.339 34.7595 146.193 34.8246 144.787 34.7725C143.094 34.7204 141.675 34.421 140.529 33.8741C139.383 33.3012 138.459 32.6111 137.756 31.8038C137.053 30.9704 136.545 30.072 136.232 29.1085C135.92 28.1449 135.75 27.2465 135.724 26.4131C135.698 25.5798 135.946 24.7074 136.467 23.796C136.987 22.8845 137.717 22.0512 138.654 21.296C139.618 20.5408 140.777 19.9288 142.131 19.46C143.485 18.9652 144.969 18.7178 146.584 18.7178C147.521 18.7178 148.381 18.835 149.162 19.0694C149.969 19.2777 150.698 19.5642 151.349 19.9288C152.027 20.2934 152.612 20.71 153.107 21.1788C153.602 21.6215 154.019 22.0772 154.357 22.546C154.696 23.0408 154.982 23.5616 155.217 24.1085C155.425 24.5772 155.594 25.1111 155.724 25.71C155.855 26.309 155.894 26.921 155.842 27.546C153.862 27.598 152.261 27.6371 151.037 27.6631C149.839 27.6892 148.902 27.7022 148.224 27.7022H145.138C144.67 27.7022 144.058 27.7152 143.303 27.7413C142.547 27.7673 141.623 27.8064 140.529 27.8585C140.659 28.9001 140.985 29.7074 141.506 30.2803C142.053 30.8272 142.625 31.2439 143.224 31.5303C143.902 31.8428 144.644 32.0251 145.451 32.0772ZM141.935 25.046C142.769 25.098 143.459 25.1371 144.006 25.1631C144.579 25.1892 145.047 25.2152 145.412 25.2413C145.803 25.2673 146.115 25.2803 146.349 25.2803H147.326C147.977 25.2803 149.188 25.2413 150.959 25.1631C150.881 24.0173 150.633 23.1449 150.217 22.546C149.826 21.947 149.409 21.5043 148.967 21.2178C148.446 20.9053 147.873 20.723 147.248 20.671C145.555 20.697 144.292 21.0486 143.459 21.7256C142.652 22.4027 142.144 23.5095 141.935 25.046Z" fill="#D2D0A0"/>
<path d="M160.334 22.546C160.464 22.3897 160.542 22.1033 160.568 21.6866C160.62 21.2439 160.724 20.7491 160.881 20.2022C161.063 19.6553 161.362 19.0824 161.779 18.4835C162.196 17.8845 162.873 17.3246 163.81 16.8038C164.722 16.2829 165.607 15.9704 166.467 15.8663C167.326 15.7621 168.146 15.8012 168.928 15.9835C169.709 16.1658 170.438 16.4522 171.115 16.8428C171.818 17.2335 172.456 17.6631 173.029 18.1319C173.42 18.4444 173.732 18.9001 173.967 19.4991C174.201 20.072 174.383 20.723 174.513 21.4522C174.644 22.1814 174.735 22.9496 174.787 23.7569C174.865 24.5381 174.917 25.3064 174.943 26.0616C174.969 26.7908 174.982 27.4678 174.982 28.0928C175.008 28.6918 175.06 29.1866 175.138 29.5772C175.243 30.1501 175.425 30.6449 175.685 31.0616C175.946 31.4522 176.232 31.7908 176.545 32.0772C176.857 32.3376 177.17 32.546 177.482 32.7022C177.795 32.8585 178.068 32.9756 178.303 33.0538C178.459 33.1319 178.602 33.184 178.732 33.21C178.993 33.3142 179.175 33.3142 179.279 33.21C179.123 33.5746 178.98 33.8871 178.849 34.1475C178.719 34.4079 178.615 34.6293 178.537 34.8116C178.433 35.0199 178.342 35.1892 178.263 35.3194C178.185 35.4756 178.094 35.6189 177.99 35.7491C177.912 35.8793 177.808 36.0225 177.678 36.1788C177.547 36.335 177.417 36.5043 177.287 36.6866C176.948 36.5564 176.623 36.4001 176.31 36.2178C176.024 36.0355 175.763 35.8663 175.529 35.71C175.243 35.5277 174.982 35.3454 174.748 35.1631C174.513 34.9809 174.292 34.7725 174.084 34.5381C173.902 34.3298 173.706 34.1085 173.498 33.8741C173.316 33.6397 173.159 33.3793 173.029 33.0928C172.873 33.4314 172.495 33.9131 171.896 34.5381C171.323 35.1631 170.568 35.7361 169.631 36.2569C168.693 36.7517 167.599 37.1033 166.349 37.3116C165.125 37.5199 163.771 37.3767 162.287 36.8819C161.636 36.6736 161.024 36.3741 160.451 35.9835C159.878 35.5668 159.383 35.072 158.967 34.4991C158.576 33.9262 158.29 33.2751 158.107 32.546C157.951 31.7908 157.964 30.9574 158.146 30.046C158.329 29.1345 158.654 28.3663 159.123 27.7413C159.592 27.1163 160.152 26.6085 160.803 26.2178C161.454 25.8272 162.183 25.5277 162.99 25.3194C163.797 25.1111 164.631 24.9678 165.49 24.8897C166.167 24.8637 166.844 24.9027 167.521 25.0069C168.094 25.1111 168.693 25.3064 169.318 25.5928C169.943 25.8533 170.477 26.2569 170.92 26.8038C170.894 25.4236 170.842 24.3298 170.763 23.5225C170.711 22.6892 170.659 22.0512 170.607 21.6085C170.503 21.0876 170.412 20.723 170.334 20.5147C170.204 20.3324 170.06 20.1241 169.904 19.8897C169.774 19.6553 169.605 19.447 169.396 19.2647C169.188 19.0564 168.928 18.8871 168.615 18.7569C168.303 18.6267 167.938 18.5746 167.521 18.6006C167.079 18.6267 166.727 18.7439 166.467 18.9522C166.206 19.1605 165.998 19.4079 165.842 19.6944C165.711 19.9548 165.633 20.2413 165.607 20.5538C165.581 20.8663 165.594 21.1397 165.646 21.3741C165.698 21.5303 165.777 21.6996 165.881 21.8819C165.985 22.0381 166.128 22.2074 166.31 22.3897C166.493 22.572 166.74 22.7283 167.053 22.8585C166.454 22.9366 165.92 23.0017 165.451 23.0538C164.982 23.0798 164.579 23.1189 164.24 23.171C163.849 23.223 163.511 23.2621 163.224 23.2881C162.938 23.3142 162.599 23.3663 162.209 23.4444C161.87 23.4965 161.454 23.5616 160.959 23.6397C160.464 23.7178 159.891 23.822 159.24 23.9522C159.396 23.7699 159.54 23.6006 159.67 23.4444C159.8 23.2621 159.917 23.1059 160.021 22.9756C160.125 22.8194 160.23 22.6762 160.334 22.546ZM166.193 27.1944C165.724 27.2204 165.256 27.3376 164.787 27.546C164.318 27.7283 163.902 28.0017 163.537 28.3663C163.172 28.7048 162.86 29.1085 162.599 29.5772C162.365 30.0199 162.248 30.5147 162.248 31.0616C162.248 31.6085 162.378 32.0902 162.638 32.5069C162.925 32.8975 163.29 33.223 163.732 33.4835C164.201 33.7439 164.696 33.9001 165.217 33.9522C165.763 34.0043 166.297 33.9522 166.818 33.796C167.313 33.6137 167.782 33.3272 168.224 32.9366C168.667 32.5199 169.045 32.0772 169.357 31.6085C169.67 31.1137 169.891 30.6319 170.021 30.1631C170.152 29.6684 170.165 29.2647 170.06 28.9522C169.852 28.2751 169.383 27.8064 168.654 27.546C167.925 27.2595 167.105 27.1423 166.193 27.1944Z" fill="#D2D0A0"/>
<path d="M178.498 10.2022C178.784 10.3324 179.123 10.4236 179.513 10.4756C179.93 10.5277 180.321 10.5538 180.685 10.5538C181.128 10.5538 181.584 10.5408 182.053 10.5147C182.521 10.4887 183.094 10.4366 183.771 10.3585C184.318 10.3064 184.995 10.2413 185.803 10.1631C186.61 10.085 187.508 9.98086 188.498 9.85065C188.133 10.0329 187.821 10.2283 187.56 10.4366C187.3 10.6449 187.079 10.8533 186.896 11.0616C186.688 11.296 186.519 11.5303 186.388 11.7647C186.206 12.0772 185.959 12.6241 185.646 13.4053C185.36 14.1605 185.06 15.0069 184.748 15.9444C184.461 16.8819 184.201 17.8324 183.967 18.796C183.758 19.7595 183.641 20.5798 183.615 21.2569C183.589 21.8298 183.563 22.4809 183.537 23.21C183.511 23.835 183.485 24.6033 183.459 25.5147C183.433 26.4262 183.407 27.4678 183.381 28.6397C185.256 27.2855 186.701 26.2048 187.717 25.3975C188.732 24.5642 189.474 23.9262 189.943 23.4835C190.49 22.9887 190.816 22.6371 190.92 22.4288C190.894 22.2725 190.829 22.1033 190.724 21.921C190.594 21.7647 190.412 21.5824 190.178 21.3741C189.943 21.1658 189.592 20.9314 189.123 20.671C189.8 20.7491 190.386 20.8012 190.881 20.8272C191.402 20.8533 191.844 20.8793 192.209 20.9053C192.625 20.9314 192.99 20.9314 193.303 20.9053C193.641 20.9053 194.058 20.8923 194.553 20.8663C195.412 20.8402 196.74 20.8012 198.537 20.7491C196.792 21.6605 195.412 22.4418 194.396 23.0928C193.823 23.4574 193.316 23.796 192.873 24.1085C192.43 24.447 191.974 24.7986 191.506 25.1631C191.089 25.4756 190.607 25.8402 190.06 26.2569C189.54 26.6736 189.019 27.1163 188.498 27.585C189.409 29.0694 190.204 30.2934 190.881 31.2569C191.584 32.2204 192.17 33.0017 192.638 33.6006C193.185 34.3038 193.667 34.8637 194.084 35.2803C194.5 35.671 195.047 36.1137 195.724 36.6085C196.297 37.0512 197.04 37.572 197.951 38.171C198.888 38.7439 200.021 39.4079 201.349 40.1631C200.672 40.0329 200.021 39.9418 199.396 39.8897C198.771 39.8637 198.237 39.8637 197.795 39.8897C197.248 39.9158 196.753 39.9678 196.31 40.046C195.842 40.1501 195.321 40.2803 194.748 40.4366C194.253 40.5668 193.667 40.7361 192.99 40.9444C192.339 41.1788 191.623 41.4783 190.842 41.8428C191.336 41.4783 191.701 41.1267 191.935 40.7881C192.196 40.4756 192.378 40.2152 192.482 40.0069C192.586 39.7465 192.625 39.5251 192.599 39.3428C192.469 39.0824 192.17 38.5486 191.701 37.7413C191.258 37.0642 190.607 36.0746 189.748 34.7725C188.888 33.4704 187.665 31.6996 186.076 29.46C185.998 29.4861 185.868 29.5642 185.685 29.6944C185.529 29.8246 185.295 30.0069 184.982 30.2413C184.67 30.4496 184.253 30.7621 183.732 31.1788L184.787 38.0147C184.553 38.1189 184.292 38.21 184.006 38.2881C183.745 38.3663 183.498 38.4314 183.263 38.4835C182.977 38.5616 182.691 38.6137 182.404 38.6397C182.118 38.6658 181.779 38.7178 181.388 38.796C181.05 38.848 180.646 38.9131 180.178 38.9913C179.709 39.0954 179.175 39.2126 178.576 39.3428C178.915 39.1085 179.188 38.835 179.396 38.5225C179.605 38.2361 179.774 37.9626 179.904 37.7022C180.034 37.4158 180.152 37.1163 180.256 36.8038C180.308 36.5434 180.36 35.8663 180.412 34.7725C180.49 33.6788 180.555 32.3767 180.607 30.8663C180.659 29.3298 180.698 27.6892 180.724 25.9444C180.777 24.1996 180.803 22.559 180.803 21.0225C180.803 19.46 180.79 18.1059 180.763 16.96C180.737 15.7881 180.685 15.0329 180.607 14.6944C180.477 14.2777 180.321 13.835 180.138 13.3663C179.982 12.9496 179.761 12.4809 179.474 11.96C179.214 11.4131 178.888 10.8272 178.498 10.2022Z" fill="#D2D0A0"/>
<path d="M207.287 32.0772C208.016 32.0772 208.693 31.9991 209.318 31.8428C209.839 31.7126 210.334 31.5043 210.803 31.2178C211.297 30.9053 211.623 30.4496 211.779 29.8506C212.3 29.9548 212.743 30.046 213.107 30.1241C213.472 30.1762 213.784 30.2283 214.045 30.2803C214.331 30.3585 214.579 30.4105 214.787 30.4366C214.995 30.4887 215.243 30.5408 215.529 30.5928C215.79 30.6449 216.102 30.71 216.467 30.7881C216.857 30.8402 217.313 30.9184 217.834 31.0225C217.443 30.9704 217.04 31.0095 216.623 31.1397C216.232 31.2699 215.855 31.4131 215.49 31.5694C215.073 31.7517 214.683 31.973 214.318 32.2335C214.084 32.3897 213.81 32.6241 213.498 32.9366C213.211 33.2491 212.795 33.5486 212.248 33.835C211.701 34.1215 210.972 34.3689 210.06 34.5772C209.175 34.7595 208.029 34.8246 206.623 34.7725C204.93 34.7204 203.511 34.421 202.365 33.8741C201.219 33.3012 200.295 32.6111 199.592 31.8038C198.888 30.9704 198.381 30.072 198.068 29.1085C197.756 28.1449 197.586 27.2465 197.56 26.4131C197.534 25.5798 197.782 24.7074 198.303 23.796C198.823 22.8845 199.553 22.0512 200.49 21.296C201.454 20.5408 202.612 19.9288 203.967 19.46C205.321 18.9652 206.805 18.7178 208.42 18.7178C209.357 18.7178 210.217 18.835 210.998 19.0694C211.805 19.2777 212.534 19.5642 213.185 19.9288C213.862 20.2934 214.448 20.71 214.943 21.1788C215.438 21.6215 215.855 22.0772 216.193 22.546C216.532 23.0408 216.818 23.5616 217.053 24.1085C217.261 24.5772 217.43 25.1111 217.56 25.71C217.691 26.309 217.73 26.921 217.678 27.546C215.698 27.598 214.097 27.6371 212.873 27.6631C211.675 27.6892 210.737 27.7022 210.06 27.7022H206.974C206.506 27.7022 205.894 27.7152 205.138 27.7413C204.383 27.7673 203.459 27.8064 202.365 27.8585C202.495 28.9001 202.821 29.7074 203.342 30.2803C203.888 30.8272 204.461 31.2439 205.06 31.5303C205.737 31.8428 206.48 32.0251 207.287 32.0772ZM203.771 25.046C204.605 25.098 205.295 25.1371 205.842 25.1631C206.415 25.1892 206.883 25.2152 207.248 25.2413C207.638 25.2673 207.951 25.2803 208.185 25.2803H209.162C209.813 25.2803 211.024 25.2413 212.795 25.1631C212.717 24.0173 212.469 23.1449 212.053 22.546C211.662 21.947 211.245 21.5043 210.803 21.2178C210.282 20.9053 209.709 20.723 209.084 20.671C207.391 20.697 206.128 21.0486 205.295 21.7256C204.487 22.4027 203.98 23.5095 203.771 25.046Z" fill="#D2D0A0"/>
<path d="M218.849 19.6553C219.344 19.6814 219.787 19.6944 220.178 19.6944C220.594 19.6684 220.946 19.6423 221.232 19.6163C221.571 19.5902 221.87 19.5642 222.131 19.5381C222.521 19.4861 222.925 19.421 223.342 19.3428C223.706 19.2908 224.084 19.2256 224.474 19.1475C224.891 19.0434 225.295 18.9262 225.685 18.796C225.529 19.1866 225.399 19.5251 225.295 19.8116C225.191 20.098 225.112 20.3454 225.06 20.5538C224.982 20.7881 224.943 20.9835 224.943 21.1397C224.917 21.322 224.904 21.5434 224.904 21.8038C224.878 22.2465 224.878 22.9626 224.904 23.9522C226.258 22.7803 227.391 21.8689 228.303 21.2178C229.24 20.5668 229.982 20.059 230.529 19.6944C231.18 19.2777 231.688 19.0043 232.053 18.8741C233.016 18.7178 233.862 18.9392 234.592 19.5381C234.904 19.7986 235.204 20.1501 235.49 20.5928C235.777 21.0095 236.024 21.5694 236.232 22.2725C236.441 22.9756 236.597 23.822 236.701 24.8116C236.805 25.7751 236.818 26.934 236.74 28.2881C236.193 28.3402 235.698 28.3923 235.256 28.4444C234.839 28.4965 234.487 28.5355 234.201 28.5616C233.862 28.6137 233.55 28.6397 233.263 28.6397L232.209 28.7569C231.844 28.809 231.388 28.8611 230.842 28.9131C230.321 28.9392 229.683 28.9913 228.928 29.0694C230.021 28.184 230.724 27.4158 231.037 26.7647C231.375 26.0876 231.519 25.5277 231.467 25.085C231.415 24.5902 231.18 24.1605 230.763 23.796C230.269 23.5095 229.735 23.4053 229.162 23.4835C228.667 23.5355 228.094 23.7569 227.443 24.1475C226.792 24.5381 226.102 25.2673 225.373 26.335C225.425 28.0017 225.477 29.3819 225.529 30.4756C225.607 31.5694 225.672 32.4548 225.724 33.1319C225.803 33.9131 225.868 34.5251 225.92 34.9678C225.998 35.3585 226.154 35.7751 226.388 36.2178C226.571 36.5824 226.831 36.9861 227.17 37.4288C227.508 37.8715 227.951 38.3142 228.498 38.7569C227.352 38.7048 226.415 38.7048 225.685 38.7569C225.243 38.7829 224.852 38.809 224.513 38.835C224.149 38.8871 223.758 38.9392 223.342 38.9913C222.977 39.0434 222.547 39.0954 222.053 39.1475C221.584 39.2256 221.063 39.3038 220.49 39.3819C220.698 39.0954 220.868 38.7569 220.998 38.3663C221.128 38.0017 221.232 37.6501 221.31 37.3116C221.415 36.921 221.493 36.5173 221.545 36.1006C221.571 35.7361 221.584 35.1892 221.584 34.46C221.61 33.7309 221.597 32.9105 221.545 31.9991C221.519 31.0616 221.48 30.098 221.428 29.1085C221.375 28.0928 221.31 27.1423 221.232 26.2569C221.154 25.3715 221.063 24.6033 220.959 23.9522C220.881 23.2751 220.79 22.8064 220.685 22.546C220.555 22.2335 220.399 21.921 220.217 21.6085C220.06 21.322 219.865 21.0225 219.631 20.71C219.396 20.3715 219.136 20.0199 218.849 19.6553Z" fill="#D2D0A0"/>
<path d="M274.683 3.36627C274.683 5.02565 275.643 6.36627 276.831 6.36627H278.98C280.168 6.36627 281.128 7.7069 281.128 9.36627C281.128 11.0256 280.168 12.3663 278.98 12.3663H257.497C256.309 12.3663 255.349 13.7069 255.349 15.3663C255.349 17.0256 256.309 18.3663 257.497 18.3663H278.98C282.538 18.3663 285.424 14.335 285.424 9.36627C285.424 4.39752 282.538 0.366272 278.98 0.366272H276.831C275.643 0.366272 274.683 1.7069 274.683 3.36627ZM278.98 36.3663C278.98 38.0256 279.94 39.3663 281.128 39.3663H283.276C286.834 39.3663 289.721 35.335 289.721 30.3663C289.721 25.3975 286.834 21.3663 283.276 21.3663H257.497C256.309 21.3663 255.349 22.7069 255.349 24.3663C255.349 26.0256 256.309 27.3663 257.497 27.3663H283.276C284.464 27.3663 285.424 28.7069 285.424 30.3663C285.424 32.0256 284.464 33.3663 283.276 33.3663H281.128C279.94 33.3663 278.98 34.7069 278.98 36.3663ZM263.942 48.3663H266.09C269.648 48.3663 272.535 44.335 272.535 39.3663C272.535 34.3975 269.648 30.3663 266.09 30.3663H257.497C256.309 30.3663 255.349 31.7069 255.349 33.3663C255.349 35.0256 256.309 36.3663 257.497 36.3663H266.09C267.278 36.3663 268.238 37.7069 268.238 39.3663C268.238 41.0256 267.278 42.3663 266.09 42.3663H263.942C262.753 42.3663 261.793 43.7069 261.793 45.3663C261.793 47.0256 262.753 48.3663 263.942 48.3663Z" fill="#D2D0A0"/>
</svg>
