<svg width="35" height="49" viewBox="0 0 35 49" fill="none" xmlns="http://www.w3.org/2000/svg">
<path d="M19.6539 3.36627C19.6539 5.02565 20.6139 6.36627 21.8022 6.36627H23.9505C25.1387 6.36627 26.0987 7.7069 26.0987 9.36627C26.0987 11.0256 25.1387 12.3663 23.9505 12.3663H2.46784C1.27958 12.3663 0.31958 13.7069 0.31958 15.3663C0.31958 17.0256 1.27958 18.3663 2.46784 18.3663H23.9505C27.5085 18.3663 30.3952 14.335 30.3952 9.36627C30.3952 4.39752 27.5085 0.366272 23.9505 0.366272H21.8022C20.6139 0.366272 19.6539 1.7069 19.6539 3.36627ZM23.9505 36.3663C23.9505 38.0256 24.9105 39.3663 26.0987 39.3663H28.247C31.805 39.3663 34.6918 35.335 34.6918 30.3663C34.6918 25.3975 31.805 21.3663 28.247 21.3663H2.46784C1.27958 21.3663 0.31958 22.7069 0.31958 24.3663C0.31958 26.0256 1.27958 27.3663 2.46784 27.3663H28.247C29.4352 27.3663 30.3952 28.7069 30.3952 30.3663C30.3952 32.0256 29.4352 33.3663 28.247 33.3663H26.0987C24.9105 33.3663 23.9505 34.7069 23.9505 36.3663ZM8.91263 48.3663H11.0609C14.6189 48.3663 17.5057 44.335 17.5057 39.3663C17.5057 34.3975 14.6189 30.3663 11.0609 30.3663H2.46784C1.27958 30.3663 0.31958 31.7069 0.31958 33.3663C0.31958 35.0256 1.27958 36.3663 2.46784 36.3663H11.0609C12.2491 36.3663 13.2092 37.7069 13.2092 39.3663C13.2092 41.0256 12.2491 42.3663 11.0609 42.3663H8.91263C7.72437 42.3663 6.76437 43.7069 6.76437 45.3663C6.76437 47.0256 7.72437 48.3663 8.91263 48.3663Z" fill="#D2D0A0"/>
</svg>
